<?xml version="1.0" encoding="UTF-8" standalone="no"?>
<svg
   xmlns:osb="http://www.openswatchbook.org/uri/2009/osb"
   xmlns:dc="http://purl.org/dc/elements/1.1/"
   xmlns:cc="http://creativecommons.org/ns#"
   xmlns:rdf="http://www.w3.org/1999/02/22-rdf-syntax-ns#"
   xmlns:svg="http://www.w3.org/2000/svg"
   xmlns="http://www.w3.org/2000/svg"
   xmlns:sodipodi="http://sodipodi.sourceforge.net/DTD/sodipodi-0.dtd"
   xmlns:inkscape="http://www.inkscape.org/namespaces/inkscape"
   width="64"
   height="64"
   viewBox="0 0 16.933333 16.933334"
   version="1.1"
   id="svg820"
   sodipodi:docname="boobs.svg"
   inkscape:version="0.92.4 (5da689c313, 2019-01-14)">
  <defs
     id="defs814">
    <linearGradient
       id="linearGradient5235"
       osb:paint="solid">
      <stop
         style="stop-color:#ffffff;stop-opacity:1;"
         offset="0"
         id="stop5233" />
    </linearGradient>
  </defs>
  <sodipodi:namedview
     id="base"
     pagecolor="#ffffff"
     bordercolor="#666666"
     borderopacity="1.0"
     inkscape:pageopacity="0.0"
     inkscape:pageshadow="2"
     inkscape:zoom="5.6568543"
     inkscape:cx="17.194388"
     inkscape:cy="14.907067"
     inkscape:document-units="mm"
     inkscape:current-layer="layer1"
     showgrid="false"
     inkscape:pagecheckerboard="true"
     units="px"
     inkscape:window-width="1920"
     inkscape:window-height="1017"
     inkscape:window-x="-8"
     inkscape:window-y="-8"
     inkscape:window-maximized="1"
     borderlayer="false" />
  <metadata
     id="metadata817">
    <rdf:RDF>
      <cc:Work
         rdf:about="">
        <dc:format>image/svg+xml</dc:format>
        <dc:type
           rdf:resource="http://purl.org/dc/dcmitype/StillImage" />
        <dc:title></dc:title>
      </cc:Work>
    </rdf:RDF>
  </metadata>
  <g
     inkscape:label="Layer 1"
     inkscape:groupmode="layer"
     id="layer1"
     transform="translate(0,-280.06665)"
     style="display:inline">
    <path
       style="fill:#000000;stroke-width:0.26964495"
       d=""
       id="path5163"
       inkscape:connector-curvature="0" />
    <path
       style="fill:#000000;stroke-width:0.26964495"
       d=""
       id="path5161"
       inkscape:connector-curvature="0" />
    <path
       style="fill:#000000;stroke-width:0.26964495"
       d=""
       id="path5121"
       inkscape:connector-curvature="0" />
    <path
       style="fill:#000000;stroke-width:0.26964495"
       d=""
       id="path5119"
       inkscape:connector-curvature="0" />
    <path
       style="fill:#000000;stroke-width:0.26964495"
       d=""
       id="path5111"
       inkscape:connector-curvature="0" />
    <path
       style="fill:#000000;stroke-width:0.26964495"
       d=""
       id="path5109"
       inkscape:connector-curvature="0" />
    <path
       style="fill:#000000;stroke-width:0.26964495"
       d=""
       id="path5107"
       inkscape:connector-curvature="0" />
    <path
       style="fill:#000000;stroke-width:0.26964495"
       d=""
       id="path5105"
       inkscape:connector-curvature="0" />
    <path
       style="fill:#000000;stroke-width:0.26964495"
       d=""
       id="path5103"
       inkscape:connector-curvature="0" />
    <path
       style="fill:#000000;stroke-width:0.26964495"
       d=""
       id="path5101"
       inkscape:connector-curvature="0" />
    <path
       style="fill:#000000;stroke-width:0.26964495"
       d=""
       id="path5099"
       inkscape:connector-curvature="0" />
    <path
       style="fill:#000000;stroke-width:0.26964495"
       d=""
       id="path5089"
       inkscape:connector-curvature="0" />
    <path
       style="fill:#000000;stroke-width:0.26964495"
       d=""
       id="path5087"
       inkscape:connector-curvature="0" />
    <path
       style="fill:#000000;stroke-width:0.26964495"
       d=""
       id="path5085"
       inkscape:connector-curvature="0" />
    <path
       style="fill:#000000;stroke-width:0.26964495"
       d=""
       id="path5083"
       inkscape:connector-curvature="0" />
    <path
       style="fill:#000000;stroke-width:0.26964495"
       d=""
       id="path5081"
       inkscape:connector-curvature="0" />
    <path
       style="display:inline;fill:#000000;stroke-width:0.26964495"
       d=""
       id="path5079"
       inkscape:connector-curvature="0" />
    <path
       style="display:inline;fill:none;stroke:#000000;stroke-width:0.26458332px;stroke-linecap:butt;stroke-linejoin:miter;stroke-opacity:1"
       d="m 287.63989,273.94344 v -1.13393"
       id="path5571"
       inkscape:connector-curvature="0" />
    <path
       style="opacity:1;fill:#ffffff;fill-opacity:1;stroke:#ffffff;stroke-width:0.25253814;stroke-miterlimit:4;stroke-dasharray:none;stroke-opacity:1"
       d="m 3.5102979,294.11348 c -1.0549402,-0.23827 -2.0022676,-0.95564 -2.4915522,-1.88675 -0.3543341,-0.67429 -0.47242494,-1.18867 -0.4643384,-2.02253 0.008553,-0.88199 0.17721466,-1.55916 0.7764216,-3.11732 0.4677019,-1.2162 0.640075,-1.82459 0.6416817,-2.26482 0.00111,-0.3035 0.091871,-0.43097 0.3068478,-0.43097 0.2544114,0 0.3186432,0.15787 0.2713333,0.66691 -0.050427,0.54257 -0.2462025,1.19011 -0.7522103,2.488 -0.4805553,1.2326 -0.6452578,1.92355 -0.6495659,2.72502 -0.00528,0.98229 0.2419614,1.67762 0.814078,2.28948 0.6927749,0.74089 1.2974028,1.00098 2.3491131,1.01051 0.5698995,0.005 0.7854889,-0.0225 1.1486203,-0.14756 1.089439,-0.37506 1.9273906,-1.21017 2.2199473,-2.21241 0.1505275,-0.51568 0.1299704,-1.41135 -0.057568,-2.50819 -0.1086929,-0.63571 -0.1392849,-0.97134 -0.095919,-1.05237 0.075838,-0.14171 0.3451424,-0.157 0.4540436,-0.0258 0.091345,0.11007 0.2501468,0.91615 0.3677253,1.86659 0.082434,0.66635 0.084975,0.67304 0.1313511,0.34541 0.1772785,-1.2524 0.3183405,-2.06498 0.3777419,-2.17597 0.08228,-0.15375 0.3481594,-0.17022 0.4654886,-0.0288 0.067115,0.0809 0.052972,0.28543 -0.072762,1.05238 -0.2090905,1.2754 -0.2081824,2.14823 0.0028,2.68924 0.3251028,0.83366 0.8846503,1.43801 1.7068643,1.84356 2.034096,1.0033 4.297109,-0.0525 4.714665,-2.19962 0.104881,-0.53931 0.04426,-1.48782 -0.136353,-2.13331 -0.07461,-0.26667 -0.328495,-0.9883 -0.56418,-1.60362 -0.50144,-1.30915 -0.628968,-1.76756 -0.651673,-2.3425 -0.01715,-0.43424 0.04045,-0.54358 0.287611,-0.5459 0.166792,-0.002 0.239484,0.13203 0.290277,0.53351 0.07694,0.60811 0.216031,1.07299 0.663351,2.21701 0.622256,1.59144 0.741105,2.10142 0.736834,3.16179 -0.0031,0.76508 -0.02389,0.92233 -0.174569,1.31908 -0.478277,1.25936 -1.389159,2.11311 -2.626903,2.46213 -0.473349,0.13347 -1.570811,0.11625 -2.071338,-0.0325 -1.4973096,-0.44499 -2.6645338,-1.69811 -2.9099655,-3.12412 l -0.084498,-0.49095 -0.081734,0.47506 c -0.1874689,1.08963 -0.8745373,2.07707 -1.8682922,2.68507 -0.8174329,0.50012 -2.0753186,0.71811 -2.9733735,0.51529 z"
       id="path5608"
       inkscape:connector-curvature="0" />
    <path
       style="opacity:1;fill:#ffffff;fill-opacity:1;stroke:#ffffff;stroke-width:0.95447487;stroke-miterlimit:4;stroke-dasharray:none;stroke-opacity:1"
       d="m 12.36776,46.406227 c -1.745079,-0.919982 -2.8930966,-2.657465 -2.8930966,-4.378599 0,-1.982515 1.8482436,-4.350473 3.6610876,-4.690565 3.778176,-0.70879 6.884722,2.386404 5.93502,5.913331 -0.746787,2.773355 -4.276383,4.435117 -6.703011,3.155833 z"
       id="path5610"
       inkscape:connector-curvature="0"
       transform="matrix(0.26458333,0,0,0.26458333,0,280.06665)" />
    <path
       style="opacity:1;fill:#ffffff;fill-opacity:1;stroke:#ffffff;stroke-width:0.25253814;stroke-miterlimit:4;stroke-dasharray:none;stroke-opacity:1"
       d="m 12.62196,292.37447 c -0.111497,-0.0506 -0.297079,-0.18635 -0.412406,-0.30168 -0.584445,-0.58444 -0.408941,-1.64751 0.331137,-2.00578 1.126444,-0.5453 2.257772,0.58603 1.71247,1.71247 -0.195688,0.40424 -0.564101,0.63763 -1.050321,0.66539 -0.224073,0.0128 -0.460759,-0.0159 -0.58088,-0.0704 z"
       id="path5612"
       inkscape:connector-curvature="0" />
  </g>
</svg>
