<svg xmlns="http://www.w3.org/2000/svg" xmlns:xlink="http://www.w3.org/1999/xlink" version="1.1" style="" xml:space="preserve" width="208" height="208"><rect id="backgroundrect" width="100%" height="100%" x="0" y="0" fill="none" stroke="none"/>
















<g class="currentLayer" style=""><title>Layer 1</title><g id="svg_1" class="selected" fill="#ffffff" fill-opacity="1" stroke="#dadada" stroke-opacity="1">
	<path style="" d="M148.136,0H59.864C47.042,0,36.61,10.432,36.61,23.254v161.492C36.61,197.568,47.042,208,59.864,208   h88.271c12.822,0,23.254-10.432,23.254-23.254V23.254C171.39,10.432,160.958,0,148.136,0z M51.61,42.502H156.39v14.102H51.61   V42.502z M59.864,15h88.271c4.551,0,8.254,3.703,8.254,8.254v4.249H51.61v-4.249C51.61,18.703,55.313,15,59.864,15z M148.136,193   H59.864c-4.551,0-8.254-3.703-8.254-8.254V71.604H156.39v113.142C156.39,189.297,152.687,193,148.136,193z" id="svg_2" fill="#ffffff" fill-opacity="1" stroke="#dadada" stroke-opacity="1"/>
	<rect x="124.76699829101562" y="91.802001953125" style="" width="16.604000091552734" height="16.604000091552734" id="svg_3" fill="#ffffff" fill-opacity="1" stroke="#dadada" stroke-opacity="1"/>
	<rect x="95.697998046875" y="91.802001953125" style="" width="16.604000091552734" height="16.604000091552734" id="svg_4" fill="#ffffff" fill-opacity="1" stroke="#dadada" stroke-opacity="1"/>
	<rect x="66.62799835205078" y="91.802001953125" style="" width="16.604000091552734" height="16.604000091552734" id="svg_5" fill="#ffffff" fill-opacity="1" stroke="#dadada" stroke-opacity="1"/>
	<rect x="124.76699829101562" y="124.802001953125" style="" width="16.604000091552734" height="16.604000091552734" id="svg_6" fill="#ffffff" fill-opacity="1" stroke="#dadada" stroke-opacity="1"/>
	<rect x="95.697998046875" y="124.802001953125" style="" width="16.604000091552734" height="16.604000091552734" id="svg_7" fill="#ffffff" fill-opacity="1" stroke="#dadada" stroke-opacity="1"/>
	<rect x="66.62799835205078" y="124.802001953125" style="" width="16.604000091552734" height="16.604000091552734" id="svg_8" fill="#ffffff" fill-opacity="1" stroke="#dadada" stroke-opacity="1"/>
	<rect x="124.76699829101562" y="157.802001953125" style="" width="16.604000091552734" height="16.604000091552734" id="svg_9" fill="#ffffff" fill-opacity="1" stroke="#dadada" stroke-opacity="1"/>
	<rect x="95.697998046875" y="157.802001953125" style="" width="16.604000091552734" height="16.604000091552734" id="svg_10" fill="#ffffff" fill-opacity="1" stroke="#dadada" stroke-opacity="1"/>
	<rect x="66.62799835205078" y="157.802001953125" style="" width="16.604000091552734" height="16.604000091552734" id="svg_11" fill="#ffffff" fill-opacity="1" stroke="#dadada" stroke-opacity="1"/>
</g><g id="svg_12">
</g><g id="svg_13">
</g><g id="svg_14">
</g><g id="svg_15">
</g><g id="svg_16">
</g><g id="svg_17">
</g><g id="svg_18">
</g><g id="svg_19">
</g><g id="svg_20">
</g><g id="svg_21">
</g><g id="svg_22">
</g><g id="svg_23">
</g><g id="svg_24">
</g><g id="svg_25">
</g><g id="svg_26">
</g></g></svg>