<?xml version="1.0" encoding="utf-8"?>
<!-- Generator: Adobe Illustrator 22.0.0, SVG Export Plug-In . SVG Version: 6.00 Build 0)  -->
<svg version="1.1" id="id_svgCanvas" xmlns="http://www.w3.org/2000/svg" xmlns:xlink="http://www.w3.org/1999/xlink" x="0px"
	 y="0px" width="38px" height="38px" viewBox="0 0 38 38" enable-background="new 0 0 38 38" xml:space="preserve">
<g>
	<path fill="#FFFFFF" d="M34.640625,18.3773041c0,7.9754848-6.2723198,14.5331078-14.1348038,14.9761887v-1.7723293
		c6.8907166-0.4430828,12.3679543-6.2031555,12.3679543-13.2038574c0-7.3551693-5.918951-13.2924747-13.251379-13.2924747
		C12.2899666,5.0848298,6.371017,11.0221348,6.371017,18.3773041c0,7.0007038,5.4772363,12.7607765,12.3679523,13.2038593v1.7723293
		c-7.862484-0.4430809-14.1348038-7.0007038-14.1348038-14.9761887c0-8.3299503,6.7140326-15.0648041,15.0182304-15.0648041
		S34.640625,10.0473537,34.640625,18.3773041z M25.9830589,23.5170593l-5.4772377-5.4942207V8.6294899h-1.7668514v10.1022797
		l6.0072918,6.0259228L25.9830589,23.5170593z"/>
</g>
</svg>
